<?xml version="1.0" encoding="iso-8859-1"?>
<!-- Generator: Adobe Illustrator 19.0.0, SVG Export Plug-In . SVG Version: 6.00 Build 0)  -->
<svg version="1.1" id="Capa_1" xmlns="http://www.w3.org/2000/svg" xmlns:xlink="http://www.w3.org/1999/xlink" x="0px" y="0px"
	 viewBox="0 0 512.001 512.001" style="enable-background:new 0 0 512.001 512.001;" xml:space="preserve">
<path style="fill:#D4F3FF;" d="M448.801,47.134V15h-385.6v32.134c0,80.579,45.636,150.49,112.467,185.323v47.086
	C108.837,314.378,63.201,384.288,63.201,464.867V497h385.6v-32.134c0-80.579-45.637-150.489-112.467-185.323v-47.086
	C403.164,197.624,448.801,127.713,448.801,47.134z"/>
<path style="fill:#96E2FF;" d="M448.802,47.134V15h-192.8v482h192.8v-32.134c0-80.579-45.637-150.489-112.467-185.323v-47.086
	C403.165,197.624,448.802,127.713,448.802,47.134z"/>
<path style="fill:#FFD570;" d="M452.994,395.99c-2.001-6.192-7.766-10.388-14.273-10.388H271V247.457h65.334
	c2.414,0,4.792-0.583,6.933-1.698c25.835-13.465,48.519-31.587,67.423-53.862c19.057-22.456,33.29-47.987,42.305-75.884
	c1.475-4.565,0.678-9.561-2.146-13.438c-2.823-3.879-7.331-6.174-12.128-6.174H73.282c-4.797,0-9.306,2.295-12.128,6.174
	c-2.823,3.878-3.62,8.873-2.146,13.438c9.015,27.897,23.248,53.428,42.305,75.884c18.903,22.275,41.588,40.397,67.422,53.862
	c2.141,1.115,4.518,1.698,6.933,1.698H241v138.144H73.282c-6.508,0-12.272,4.195-14.273,10.388
	c-7.172,22.193-10.808,45.367-10.808,68.878V497c0,8.284,6.716,15,15,15h385.6c8.284,0,15-6.716,15-15v-32.134
	C463.801,441.354,460.165,418.18,452.994,395.99z"/>
<path style="fill:#FF932E;" d="M452.994,395.99c-2.001-6.192-7.766-10.388-14.273-10.388H271V247.457h65.334
	c2.414,0,4.792-0.583,6.933-1.698c25.835-13.465,48.519-31.587,67.423-53.862c19.057-22.456,33.29-47.987,42.305-75.884
	c1.475-4.565,0.678-9.561-2.146-13.438c-2.823-3.879-7.331-6.174-12.128-6.174H256.002V512h192.799c8.284,0,15-6.716,15-15v-32.134
	C463.801,441.354,460.165,418.18,452.994,395.99z"/>
<path style="fill:#D4F3FF;" d="M448.801,512h-385.6c-8.284,0-15-6.716-15-15v-32.134c0-80.691,42.859-154.279,112.467-194.211
	v-29.311C91.061,201.415,48.201,127.827,48.201,47.134V15c0-8.284,6.716-15,15-15h385.6c8.284,0,15,6.716,15,15v32.134
	c0,80.692-42.859,154.279-112.467,194.211v29.311c69.606,39.933,112.467,113.52,112.467,194.211V497
	C463.801,505.285,457.085,512,448.801,512z M78.201,482h355.6v-17.134c0-72.541-40.004-138.456-104.4-172.022
	c-4.957-2.584-8.066-7.711-8.066-13.302v-47.086c0-5.591,3.109-10.718,8.067-13.302c64.395-33.564,104.399-99.479,104.399-172.021
	V30h-355.6v17.134c0,72.543,40.004,138.458,104.399,172.021c4.958,2.584,8.067,7.711,8.067,13.302v47.086
	c0,5.591-3.109,10.718-8.066,13.302c-64.396,33.565-104.4,99.48-104.4,172.022L78.201,482L78.201,482z"/>
<path style="fill:#96E2FF;" d="M463.802,47.134V15c0-8.284-6.716-15-15-15h-192.8v30h177.8v17.134
	c0,72.542-40.004,138.457-104.399,172.021c-4.958,2.584-8.067,7.711-8.067,13.302v47.086c0,5.591,3.109,10.718,8.066,13.302
	c64.396,33.566,104.4,99.48,104.4,172.022V482h-177.8v30h192.8c8.284,0,15-6.716,15-15v-32.134
	c0-80.691-42.86-154.278-112.467-194.211v-29.311C420.942,201.414,463.802,127.827,463.802,47.134z"/>
<g>
	<path style="fill:#B37150;" d="M497,512H15c-8.284,0-15-6.716-15-15s6.716-15,15-15h482c8.284,0,15,6.716,15,15
		C512,505.285,505.284,512,497,512z"/>
	<path style="fill:#B37150;" d="M497,30H15C6.716,30,0,23.285,0,15S6.716,0,15,0h482c8.284,0,15,6.716,15,15S505.284,30,497,30z"/>
</g>
<g>
	<path style="fill:#843D2D;" d="M497.001,482H256.002v30h240.999c8.284,0,15-6.716,15-15S505.285,482,497.001,482z"/>
	<path style="fill:#843D2D;" d="M512.001,15c0-8.284-6.716-15-15-15H256.002v30h240.999C505.285,30,512.001,23.285,512.001,15z"/>
</g>
<g>
</g>
<g>
</g>
<g>
</g>
<g>
</g>
<g>
</g>
<g>
</g>
<g>
</g>
<g>
</g>
<g>
</g>
<g>
</g>
<g>
</g>
<g>
</g>
<g>
</g>
<g>
</g>
<g>
</g>
</svg>
